<svg xmlns="http://www.w3.org/2000/svg" width="57.128" height="48" viewBox="0 0 57.128 48">
  <g id="Grupo_42596" data-name="Grupo 42596" transform="translate(-893.222 188)">
    <path id="Trazado_8392" data-name="Trazado 8392" d="M940.755-165.637a11.627,11.627,0,0,0-11.627,11.627,11.627,11.627,0,0,0,11.627,11.627,11.627,11.627,0,0,0,11.627-11.627A11.627,11.627,0,0,0,940.755-165.637Zm-4.845,16.793a4.2,4.2,0,0,1-4.2-4.2,4.2,4.2,0,0,1,4.2-4.2,4.2,4.2,0,0,1,4.2,4.2A4.2,4.2,0,0,1,935.91-148.844Zm9.689,1.616a1.938,1.938,0,0,1-1.938-1.938A1.938,1.938,0,0,1,945.6-151.1a1.937,1.937,0,0,1,1.937,1.938A1.937,1.937,0,0,1,945.6-147.228Zm0-7.75a2.907,2.907,0,0,1-2.907-2.907,2.907,2.907,0,0,1,2.907-2.907,2.907,2.907,0,0,1,2.907,2.907A2.907,2.907,0,0,1,945.6-154.979Z" transform="translate(-18.608 -11.59)" fill="#fff"/>
    <path id="Trazado_8393" data-name="Trazado 8393" d="M938.632-98.681a2.075,2.075,0,0,0-2.591,1.378,2.075,2.075,0,0,0,1.378,2.591,2.075,2.075,0,0,0,2.591-1.378A2.075,2.075,0,0,0,938.632-98.681Z" transform="translate(-22.143 -46.242)" fill="#fff"/>
    <path id="Trazado_8394" data-name="Trazado 8394" d="M905.319-118.046a3.506,3.506,0,0,0-1.281,4.789,3.506,3.506,0,0,0,4.789,1.281,3.505,3.505,0,0,0,1.281-4.789A3.505,3.505,0,0,0,905.319-118.046Z" transform="translate(-5.361 -36.009)" fill="#fff"/>
    <path id="Trazado_8395" data-name="Trazado 8395" d="M937.247-149.434c-.053.035-.1.075-.154.111l-3.067-3.092a17.435,17.435,0,0,0,5.269-9.6l3.667.311.145-1.719-3.585-.3c.039-.475.064-.955.064-1.44a17.356,17.356,0,0,0-4.251-11.393l2.756-2.525-1.748-1.908-2.83,2.593.094.1a17.386,17.386,0,0,0-9.006-4.133l.314-1.844a1.449,1.449,0,0,0,1.239-1.19,1.453,1.453,0,0,0-1.189-1.677,1.454,1.454,0,0,0-1.677,1.189,1.448,1.448,0,0,0,.776,1.533l-.322,1.889c-.526-.048-1.058-.076-1.6-.076a17.46,17.46,0,0,0-17.385,16.122l-5.174-.283a3.216,3.216,0,0,0-2.923-2.551,3.217,3.217,0,0,0-3.434,2.985,3.217,3.217,0,0,0,2.985,3.434,3.216,3.216,0,0,0,3.258-2.146l5.243.287a17.321,17.321,0,0,0,2.458,8.524l-2.408,1.918,1.612,2.025,2.287-1.822a17.487,17.487,0,0,0,8.437,5.641l-.795,2.6,1.237.378.811-2.652a17.4,17.4,0,0,0,3.79.42,17.331,17.331,0,0,0,10.208-3.314l3.257,3.283a5.363,5.363,0,0,0,.059,5.746,5.367,5.367,0,0,0,7.425,1.577,5.368,5.368,0,0,0,1.577-7.425A5.367,5.367,0,0,0,937.247-149.434Zm-15.1-1.741a14.006,14.006,0,0,1-13.99-13.99,14.006,14.006,0,0,1,13.99-13.99,14.006,14.006,0,0,1,13.99,13.99A14.006,14.006,0,0,1,922.146-151.174Z" transform="translate(0 -0.435)" fill="#fff"/>
    <path id="Trazado_8396" data-name="Trazado 8396" d="M917.166-181.926l1.863,2.1,1.292-1.144-1.947-2.2a3.263,3.263,0,0,0-.124-3.35,3.264,3.264,0,0,0-4.515-.959,3.264,3.264,0,0,0-.959,4.515A3.261,3.261,0,0,0,917.166-181.926Z" transform="translate(-9.86)" fill="#fff"/>
    <circle id="Elipse_411" data-name="Elipse 411" cx="3.264" cy="3.264" r="3.264" transform="translate(936.769 -181.471) rotate(-78.981)" fill="#fff"/>
    <circle id="Elipse_412" data-name="Elipse 412" cx="2.651" cy="2.651" r="2.651" transform="translate(944.272 -160.399) rotate(-80.841)" fill="#fff"/>
  </g>
</svg>
