<?xml version="1.0" encoding="utf-8"?>
<!-- Generator: Adobe Illustrator 22.1.0, SVG Export Plug-In . SVG Version: 6.00 Build 0)  -->
<svg version="1.1" id="Layer_1" xmlns="http://www.w3.org/2000/svg" xmlns:xlink="http://www.w3.org/1999/xlink" x="0px" y="0px"
	 viewBox="0 0 24.4 24.8" style="enable-background:new 0 0 24.4 24.8;" xml:space="preserve">
<style type="text/css">
	.iso { 
    fill:#424242;
    fill:#CC001B;
  }
	.spinner{ 
    fill:none; 
    stroke: #CC001B; 
    stroke: #ccc; 
    stroke-width: 0.5; 
    stroke-linecap: round; 
    stroke-linejoin: round; 
    stroke-miterlimit: 10;
    animation: spinner 1s infinite;
  }

  @keyframes spinner{
    0%{
      transform: rotate(0deg);
      transform-origin: center;
    }
    100%{
      transform: rotate(360deg);
      transform-origin: center;
    }
  }
</style>
<g id="clarin" transform="translate(-14 -467)">
	<path class="iso" d="M27.4,479.1c-2.5,0.9,0,0-2.5,0.9l0,0c0,1.2-0.9,2.1-2.1,2.1s-2.1-0.9-2.1-2.1
		c0-1.2,0.9-2.1,2.1-2.1c0.8,0,1.5,0.4,1.9,1.2c0,0.1,5-1.2,7.2-4.1c-1-1.2-2.4-2.2-3.9-2.5c-0.6-0.1-1.2-0.2-1.8-0.2
		c-1.1,0-2.2,0.2-3.2,0.7c-0.7,0.4-1.4,0.9-2,1.4c-0.7,0.7-1.3,1.7-1.7,2.7c-1.4,4.3,2,5.8,3.5,5.8c1.1,0,2.1-0.4,3-1.1
		C26.6,481.1,27.2,480.1,27.4,479.1z M33.4,479c-1.2-0.2-2.4-0.3-3.7-0.2c-0.9,4.8-6.3,7.6-4.5,7.9c0.3,0.1,0.6,0.1,0.9,0.1
		c4,0,7.3-3.2,7.3-7.3C33.4,479.3,33.4,479.1,33.4,479L33.4,479z"/>
</g>
<path class="spinner" d="M12.2,1.2c6.2,0,11.2,5,11.2,11.2s-5,11.2-11.2,11.2S1,18.6,1,12.4C1,10.7,1.4,9,2.1,7.6"/>
</svg>
