<svg xmlns="http://www.w3.org/2000/svg" width="27.151" height="27.253" viewBox="0 0 27.151 27.253">
  <path id="clarinIso" data-name="clarinIso" d="M337.275,548.386c-4.673,1.576.03-.009-4.692,1.588,0,.021,0,.033,0,.05a3.958,3.958,0,1,1-.425-1.759c.058.117,9.446-2.334,13.467-7.713a13.547,13.547,0,0,0-7.328-4.782,13.721,13.721,0,0,0-3.394-.43,13.337,13.337,0,0,0-6.07,1.424A13.644,13.644,0,0,0,325.1,539.5,12.577,12.577,0,0,0,322,544.541c-2.658,8.134,3.792,10.916,6.632,10.916a8.946,8.946,0,0,0,5.552-1.963A8.639,8.639,0,0,0,337.275,548.386Zm11.226-.28a24.113,24.113,0,0,0-6.881-.418c-1.7,8.986-11.716,14.292-8.4,14.769a12.314,12.314,0,0,0,1.657.135,13.658,13.658,0,0,0,13.645-13.605C348.527,548.7,348.52,548.4,348.5,548.107Z" transform="translate(-321.373 -535.339)"/>
</svg>
