<svg xmlns="http://www.w3.org/2000/svg" width="112.546" height="24.834" viewBox="0 0 112.546 24.834">
  <g id="Grupo_6692" data-name="Grupo 6692" transform="translate(-14 -467)">
    <path id="Trazado_1118" data-name="Trazado 1118" d="M214.475,556.689a13.991,13.991,0,0,1-6.777,1.563c-8,0-11.014-5.216-11.014-11.253,0-6.883,3.812-12.177,11.623-12.177a13.108,13.108,0,0,1,6.433,1.8l-.317,5.851-2.251-.238-.449-2.462c-.238-1.536-1.324-2.462-3.389-2.462-3.839,0-6.2,3.442-6.2,9.186,0,6.2,2.118,9.267,6.063,9.267,2.3,0,3.151-.556,3.6-2.3l.582-2.037h2.382Zm8.34-2.965c0,2.038.107,2.3,1.218,2.488l.741.107v1.562h-8.79v-1.562l.794-.107c1.112-.159,1.218-.37,1.218-2.462V538.13c0-1.376-.344-1.668-1.43-1.932l-.688-.159.186-1.482h6.751Zm18.242,4.077a9.887,9.887,0,0,1-2.833.45c-2.542,0-3.2-1.112-3.442-2.2a5.221,5.221,0,0,1-4.607,2.2c-3.812,0-4.5-2.674-4.5-4.527,0-4.951,5.057-5.19,8.87-5.321v-1.748c0-1.562-.636-2.595-2.462-2.595a11.29,11.29,0,0,0-4.712,1.271l-.979-2.012a12.6,12.6,0,0,1,6.962-2.225c4.157,0,6.01,1.323,6.01,6.223V554.7c0,1.3.186,1.509,1.245,1.642l.45.053Zm-6.513-7.493c-2.648-.079-4.1.661-4.1,2.648,0,1.457.767,2.2,2.012,2.2,1.191,0,2.092-.557,2.092-1.747Zm14.4,3.415c0,2.038.159,2.3,1.3,2.435l1.246.133v1.588h-9.267v-1.588l.715-.107c1.113-.211,1.192-.37,1.192-2.462v-8.366c0-1.245-.212-1.854-1.3-2.065l-.793-.133.106-1.615h5.929l.318.186.4,2.329c1.006-1.746,2.251-2.966,3.972-2.966a6.4,6.4,0,0,1,1.774.265l-.371,5.534h-.4c-2.3-1.378-3.812-1.721-4.818-1.271Zm13.449,0c0,2.038.159,2.3,1.271,2.488l.741.107v1.562h-9.054v-1.562l.794-.107c1.139-.186,1.4-.37,1.4-2.462v-8.367c0-1.457-.318-1.853-1.4-2.117l-.582-.107.105-1.615h6.407l.318.186Zm9.716,0c0,2.038,0,2.435,1.112,2.541l.5.054v1.562h-8.314v-1.562l.61-.107c1.139-.186,1.271-.4,1.271-2.488v-8.34c0-1.376-.212-1.853-1.324-2.09l-.768-.133.107-1.615h6.062l.318.186.238,1.879a7.456,7.456,0,0,1,5.376-2.515c2.674,0,4.315,1.563,4.315,5.216v7.413c0,2.012.107,2.356,1.246,2.488l.714.107v1.562h-8.313v-1.562l.53-.08c.953-.132,1.006-.5,1.006-2.33v-7.094c0-1.8-.715-2.331-2.092-2.331a5.374,5.374,0,0,0-2.595.582Zm-8.021-17.844.026-.345-3.442-2.117-4.157,4.924L258,539.665Z" transform="translate(-182.684 -66.418)" fill="#fff"/>
    <path id="Trazado_1119" data-name="Trazado 1119" d="M335.043,546.555c-4.017,1.355.026-.007-4.034,1.365,0,.018,0,.028,0,.043a3.4,3.4,0,1,1-.365-1.512c.05.1,8.12-2.007,11.577-6.631a11.647,11.647,0,0,0-6.3-4.111,11.8,11.8,0,0,0-2.917-.37,11.468,11.468,0,0,0-5.218,1.224,11.73,11.73,0,0,0-3.211,2.35,10.811,10.811,0,0,0-2.659,4.335c-2.285,6.993,3.259,9.384,5.7,9.384a7.69,7.69,0,0,0,4.773-1.687A7.426,7.426,0,0,0,335.043,546.555Zm9.65-.24a20.74,20.74,0,0,0-5.915-.359c-1.463,7.724-10.072,12.285-7.22,12.7a10.573,10.573,0,0,0,1.424.116,11.741,11.741,0,0,0,11.73-11.7C344.715,546.823,344.709,546.57,344.693,546.314Z" transform="translate(-218.167 -66.965)" fill="#fff"/>
  </g>
</svg>
